<svg width="309" height="309" viewBox="0 0 309 309" fill="none" xmlns="http://www.w3.org/2000/svg">
<path d="M190 100L199.5 106L213.5 118L222.5 124L223 172H189L190 100Z" fill="black"/>
<path d="M266 100L256.5 106L242.5 118L233.5 124L233 172H267L266 100Z" fill="black"/>
<path d="M145.699 108L163 101.5L172 99L179 98L178.5 170L145.699 142V108Z" fill="black"/>
<path d="M294.5 100C294.5 147.152 256.065 185.5 208.5 185.5C160.935 185.5 122.5 147.152 122.5 100C122.5 52.8478 160.935 14.5 208.5 14.5C256.065 14.5 294.5 52.8478 294.5 100Z" stroke="black" stroke-width="29"/>
<path d="M153.25 97C153.25 100.56 150.571 103.25 147.5 103.25C144.429 103.25 141.75 100.56 141.75 97C141.75 93.4401 144.429 90.75 147.5 90.75C150.571 90.75 153.25 93.4401 153.25 97Z" stroke="black" stroke-width="3.5"/>
<path d="M189.25 86C189.25 89.5599 186.571 92.25 183.5 92.25C180.429 92.25 177.75 89.5599 177.75 86C177.75 82.4401 180.429 79.75 183.5 79.75C186.571 79.75 189.25 82.4401 189.25 86Z" stroke="black" stroke-width="3.5"/>
<path d="M231.25 108C231.25 111.56 228.571 114.25 225.5 114.25C222.429 114.25 219.75 111.56 219.75 108C219.75 104.44 222.429 101.75 225.5 101.75C228.571 101.75 231.25 104.44 231.25 108Z" stroke="black" stroke-width="3.5"/>
<path d="M276.25 86C276.25 89.5599 273.571 92.25 270.5 92.25C267.429 92.25 264.75 89.5599 264.75 86C264.75 82.4401 267.429 79.75 270.5 79.75C273.571 79.75 276.25 82.4401 276.25 86Z" stroke="black" stroke-width="3.5"/>
<path d="M153.5 93L176.5 85L177 89L154.5 96.5L153.5 93Z" fill="black"/>
<path d="M191 85.5L220.5 103.5L218.5 107.5L190 90L191 85.5Z" fill="black"/>
<path d="M232 105.282L263.5 87.5L265.5 91L232.5 110.282L232 105.282Z" fill="black"/>
<path d="M0 269.5L96 175L133 212L37 308.5L0 269.5Z" fill="black"/>
<rect x="92.9461" y="193.153" width="56" height="28.7073" transform="rotate(-43.2859 92.9461 193.153)" fill="black"/>
</svg>
